<svg xmlns="http://www.w3.org/2000/svg" width="1230" height="820">
  <clipPath id="a">
    <path d="M0 0h1230v820H0z" />
  </clipPath>
  <g clip-path="url(#a)">
    <path fill="#121A1B"
      d="M634.566 59.707c9.428-.431 18.933-.827 28.371-.851 11.8-.029 18.241 3.053 26.396 11.246 20.354 20.449 39.608 43.873 58.936 65.445 19.076 21.289 39.565 42.118 57.284 64.499 3.058 3.863 6.114 8.173 7.832 12.828 1.282 3.476 1.686 7.207 1.895 10.885 1.2 21.119-.006 42.967-.009 64.179l-.019 134.856 81.768-.061c14.92-.007 30.51-.946 45.34.435 4.36.407 8.43 1.293 12.51 2.92 8.7 3.47 15.8 9.506 19.46 18.25 2.1 5.026 2.8 10.153 3.06 15.554.85 17.33.27 34.934.29 52.29l.14 95.605.11 87.552c.01 11.819 1.03 23.84.36 35.621-.3 5.161-1.3 10.066-3.36 14.823-4.14 9.602-12.46 16.818-22.15 20.514-4.57 1.745-9.12 2.258-13.97 2.497-15.13.745-30.48.228-45.626.234l-82.877.013-81.376-.016c-14.652-.005-29.553.525-44.178-.211-6.447-.324-13.482-.818-19.4-3.531-10.167-4.661-16.1-10.825-20.054-21.266-.234-1.006-.811-4.012-1.732-4.605-1.636-1.052-20.265-.302-23.671-.299l-212.494.031-58.412.045c-12.206.035-25.091.893-37.177-.798-8.763-1.227-17.327-4.891-23.886-10.912-8.438-7.748-12.407-17.603-12.889-28.908-.601-14.083-.062-28.4-.036-42.508l.125-81.195.117-242.855-.033-157.674-.022-48.498c-.001-9.276-.519-18.962.497-28.172 1.071-9.713 5.003-17.753 11.752-24.87 5.449-5.747 14.787-10.4 22.616-11.48 11.443-1.579 23.794-.524 35.343-.483l63.119.084c75.352.506 150.707.102 226.05-1.213" />
    <path fill="#7CBCEC"
      d="M638.509 80.627c6.683-.28 17.438-2.057 23.583.484 1.279 1.333 1.691 2.232 1.978 4.062 1.402 8.918.735 18.766.765 27.773.074 22.404-.921 46.679 1.074 68.86 1.98 22.024 13.294 41.798 36.232 46.568 10.449 2.172 21.738 1.544 32.377 1.54q21.203.088 42.403-.311c4.074-.101 13.551-1.272 16.713 1.684 1.309 1.224 1.415 2.952 1.529 4.661 1.35 20.18.086 42.3.069 62.669l.021 124.065c-25.427-.3-50.883-.097-76.313-.119-14.383-.013-30.586-1.45-44.769.966-6.625 1.129-12.166 3.342-17.32 7.726a36.87 36.87 0 0 0-12.41 21.335c-1.563 8.632-.941 17.899-.899 26.638l.077 36.845.04 132.945c.052 22.914 1.51 46.731-.158 69.52-22.031.912-44.379.162-66.44.162l-125.686-.008-86.927.046c-15.645.002-32.219 1.096-47.761-.722-4.771-.558-10.507-1.401-14.229-4.686-5.273-4.654-6.925-10.545-7.337-17.344-.634-10.467-.189-21.172-.164-31.671l.049-53.897.489-188.484c-.066-55.54.634-111.161.007-166.688a5243 5243 0 0 1-.375-95.838c.015-18.419-.567-37.337.521-55.706.349-5.888 1.953-12.133 6.002-16.608 3.717-4.109 9.147-4.704 14.435-5.107 8.747-.668 17.89.019 26.687.02l54.875-.164c80.183-.364 160.743 1.786 240.862-1.216" />
    <path fill="#121A1B"
      d="M371.622 326.691c21.173-.42 42.433-.033 63.613-.036l127.932.012 99.731-.002c13.122-.005 26.5-.71 39.579-.346 2.644.073 5.275.452 7.743 1.437 3.279 1.308 6.357 3.824 7.587 7.223.785 2.17.661 4.456-.502 6.459-1.802 3.104-4.849 4.954-8.181 5.982l-223.127-.013-78.855.014c-10.306.005-20.967.761-31.222.348-3.037-.122-6.202-.78-8.831-2.36-2.597-1.56-4.652-4.019-5.384-6.99-.554-2.249-.013-4.617 1.313-6.5 2.145-3.05 5.07-4.493 8.604-5.228" />
    <path fill="#121A1B"
      d="M372.227 238.087c38.37-1.075 77.044-.155 115.448-.146 14.678.003 29.371.221 44.046.089 9.796-.088 19.812-.713 29.589-.2 3.577.188 7.51.705 10.672 2.513 2.229 1.275 3.913 3.096 4.472 5.651.562 2.57-.451 6.39-1.947 8.556-1.898 2.751-4.927 3.445-7.971 4.127l-127.212.23c-12.903-.001-25.815-.182-38.716-.078-8.434.068-17.025.612-25.443.208-2.539-.121-5.096-.285-7.384-1.504-2.539-1.352-4.87-3.744-5.625-6.578-.752-2.825.026-5.791 1.681-8.149 2.159-3.073 4.925-3.985 8.39-4.719" />
    <path fill="#121A1B"
      d="M368.976 412.713c13.982-1.175 28.562-.391 42.618-.393l79.553-.02 51.641-.014c7.937.003 17.728-1.037 25.428.528 2.659.54 5.411 2.188 6.9 4.487 1.442 2.226 1.584 4.8 1.03 7.343-.926 4.251-3.624 6.147-7.115 8.205-13.907 1.135-28.409.366-42.377.364l-79.362-.005-52.066.032c-7.981-.002-17.764 1.084-25.456-.619-2.544-.563-5.152-2.089-6.511-4.371-1.452-2.439-1.52-5.431-.777-8.116 1.048-3.789 3.326-5.506 6.494-7.421" />
    <path fill="#4389CE"
      d="M676.921 443.457c17.276-.639 34.674-.229 51.963-.227l91.405.021 77.141-.057c13.59-.024 27.45-.589 41.01.034 3.57.164 6.94.76 10.14 2.42 3.66 1.9 6.22 4.709 7.4 8.694 3.24 10.914 1.23 31.646 1.18 43.602l.08 60.51.6 114.511c.06 18.236.55 36.609.05 54.834-.1 3.855-.17 7.867-2.15 11.285-2.57 4.413-7.07 7.261-11.92 8.502-2.65 1.093-5.31 1.064-8.14 1.119-54.964 1.082-110.147-.06-165.137.003l-59.129.06c-10.596.007-21.869.791-32.373-.444-6.332-.745-9.838-3.312-13.706-8.186-2.438-14.124-1.489-29.022-1.475-43.336l-.019-60.455-.034-115.301c-.003-20.097-.565-40.376.131-60.455.098-2.824.441-5.416 1.611-8.012 2.322-5.154 6.375-7.237 11.372-9.122" />
    <path fill="#121A1B"
      d="M876.568 564.471a64.6 64.6 0 0 1 26.312 4.288c10.86 4.278 22.43 12.707 27.08 23.806.96 2.282 1.8 4.691.82 7.082-4.97 4.216-14.83 9.117-21.18 10.096-3.8-1.683-6.61-8.856-9.69-12.016-4.908-5.038-11.741-7.479-18.718-7.419-5.796.05-11.883 2.01-15.962 6.271-2.711 2.831-4.332 6.472-4.158 10.44.977 22.225 46.778 24.114 63.718 39.859 8.49 7.893 12.61 18.859 12.86 30.329.28 12.74-4.26 25.166-13.14 34.373-11.56 11.983-26.42 14.263-42.296 14.568q-.237-.003-.475-.01c-16.465-.553-32.095-4.719-43.564-17.269-3.728-4.079-10.621-13.364-10.376-19.099 3.27-5.333 16.945-9.72 22.901-12.114 3.384 4.568 6.248 9.594 10.495 13.43 6.598 5.959 17.323 9.369 26.151 8.81 5.791-.367 11.564-2.43 15.424-6.94 3.02-3.54 4.19-8.564 3.71-13.15-1.65-15.779-25.809-19.041-37.741-23.634-7.731-2.975-15.36-6.957-21.801-12.184-9.585-7.779-15.009-17.637-16.158-29.943-1.203-12.897 2.098-23.251 10.51-33.131 9.324-10.953 21.242-15.38 35.278-16.443" />
    <path fill="#121A1B"
      d="M745.094 568.287c26.198.124 52.384-.85 78.586-.161.455 6.187 1.957 21.63-2.321 26.583-1.408 1.63-3.378 2.282-5.451 2.573-4.629.65-9.843-.356-14.551-.448-6.297-.124-12.65.182-18.946.361l.077 121.624c-.122.597-.633 1.437-.9 1.996-2.81 1.885-8.128 1.589-11.535 1.725-4.822.194-11.484.18-15.106-3.516-1.578-1.61-2.453-3.799-2.735-6.009-.767-6.009.295-24.143.263-31.448l-.465-84.84c-8.489.162-36.471 1.878-42.87-1.174-1.267-1.72-1.619-3.308-1.731-5.41-.302-5.642-.537-14.933 3.616-19.236 4.725-4.897 26.925-2.496 34.069-2.62" />
    <path fill="#4389CE"
      d="M684.94 96.46c6.468 4.56 25.963 28.226 32.868 35.93l42.953 47.964c8.379 9.362 17.304 18.575 25.01 28.497q-1.286.066-2.573.101c-13.367.283-26.784.036-40.16.099-11.48.054-24.718 1.373-35.892-.885-4.791-.969-9.322-2.965-12.829-6.433-3.725-3.684-5.793-8.614-6.918-13.663-2.498-11.208-1.786-23.753-1.98-35.212a2415 2415 0 0 1-.479-56.398" />
    <path fill="#121A1B"
      d="M166.476 310.059c10.039-.675 35.327-2.172 44.173.463 2.316.69 3.168 1.406 4.274 3.514 3.269 6.231 3.652 47.082 1.079 54.085-1.211 3.296-4.649 4.998-7.593 6.44-8.892 1.247-30.899 1.591-39.227.141-2.957-.515-7.537-1.637-9.174-4.379-3.677-6.158-3.397-46.881-.795-54.265 1.164-3.304 4.318-4.679 7.263-5.999" />
    <path fill="#7CBCEC" d="m178.425 330.067 18.348-.012.026 23.916-18.31.044q.032-11.974-.064-23.948" />
    <path fill="#121A1B"
      d="M1043.18 674.062c1.95-.228 4.08-.312 5.91.513 2.78 1.251 4.17 4.068 5.04 6.828 1.59 5.047 2.26 16.841-.18 21.498 6.61.06 18.51-2.055 24.07 1.957 1.39 1.002 2.31 2.42 2.5 4.138.28 2.511-.5 5.447-2.28 7.288-4.74 4.893-18.92 2.775-25.51 2.843.21.367.58.955.74 1.385 2 5.345 2.04 17.592-.61 22.62-1.3 2.462-2.83 3.157-5.43 3.869-1.57.236-2.78.162-4.3-.386-8.36-3.02-3.38-20.955-6.71-27.477-6.54-.44-17.02 1.777-22.45-2.526-1.62-1.28-2.41-2.96-2.6-4.994-.19-2.133.32-4.58 1.88-6.135 4.59-4.573 17.45-2.718 23.64-2.718 3.16-4.868.02-16.312 1.5-22.364.8-3.26 1.96-4.6 4.79-6.339" />
    <path fill="#121A1B"
      d="M892.086 258.114c2.162-.124 4.534-.094 6.634.493a15.6 15.6 0 0 1 9.58 7.862c2.14 4.266 2.4 9.235.71 13.698-1.98 5.305-5.43 7.78-10.3 10.085-2.57.203-5.259.226-7.725-.611-3.909-1.325-6.945-4.106-8.796-7.768-2.068-4.091-2.148-9.213-.604-13.477 1.941-5.357 5.47-7.992 10.501-10.282" />
  </g>
</svg>
